<?xml version="1.0" encoding="utf-8"?>
<!-- Generator: Adobe Illustrator 22.0.1, SVG Export Plug-In . SVG Version: 6.00 Build 0)  -->
<svg version="1.1" id="Capa_1" xmlns="http://www.w3.org/2000/svg" xmlns:xlink="http://www.w3.org/1999/xlink" x="0px" y="0px"
	 viewBox="0 0 28.4 45.4" style="enable-background:new 0 0 28.4 45.4;" xml:space="preserve">
<style type="text/css">
	.st0{fill:#353535;}
</style>
<title>eth_online</title>
<g id="Layer_2">
	<g id="Layer_1-2">
		<path class="st0" d="M2.5,29.9l10.9,15c0.3,0.5,0.9,0.6,1.4,0.3c0.1-0.1,0.2-0.2,0.3-0.3l10.9-15c0.4-0.4,0.4-1,0.1-1.4
			c-0.4-0.4-1-0.4-1.4-0.1l-9.8,5.9c-0.3,0.2-0.7,0.2-1.1,0l-9.8-5.9c-0.4-0.4-1-0.3-1.4,0.1C2,28.9,2.1,29.5,2.5,29.9L2.5,29.9z"/>
		<path class="st0" d="M28.2,21.2L15.1,0.5c-0.3-0.5-0.9-0.6-1.4-0.3c-0.1,0.1-0.3,0.2-0.3,0.3L0.2,21.2c-0.3,0.5-0.2,1.1,0.3,1.4
			c0,0,0,0,0.1,0l13.2,7.5c0.3,0.2,0.7,0.2,1,0l13.2-7.5C28.4,22.3,28.5,21.7,28.2,21.2C28.3,21.2,28.2,21.2,28.2,21.2z"/>
	</g>
</g>
</svg>
